<svg xmlns="http://www.w3.org/2000/svg" xmlns:xlink="http://www.w3.org/1999/xlink" width="320" zoomAndPan="magnify" viewBox="0 0 240 67.499998" height="90" preserveAspectRatio="xMidYMid meet" version="1.0"><defs><g/></defs><g fill="#907344" fill-opacity="1"><g transform="translate(7.897354, 40.634972)"><g><path d="M 8.527344 0.261719 C 12.4375 0.261719 15.933594 -1.382812 15.933594 -4.851562 C 15.933594 -8.136719 13.378906 -9.386719 9.023438 -10.273438 C 5.605469 -11.03125 3.988281 -11.65625 3.988281 -13.535156 C 3.988281 -15.882812 6.152344 -16.664062 8.8125 -16.664062 C 10.691406 -16.664062 12.542969 -16.21875 14.523438 -15.253906 L 14.890625 -17.160156 C 12.960938 -18.070312 10.898438 -18.515625 8.789062 -18.515625 C 5.058594 -18.515625 1.851562 -16.871094 1.851562 -13.457031 C 1.851562 -10.585938 4.171875 -9.335938 8.476562 -8.5 C 11.8125 -7.769531 13.796875 -7.171875 13.796875 -4.796875 C 13.796875 -2.347656 11.316406 -1.617188 8.527344 -1.617188 C 6.3125 -1.617188 3.546875 -2.136719 1.460938 -3.257812 L 1.226562 -1.40625 C 3.15625 -0.285156 5.816406 0.261719 8.527344 0.261719 Z M 8.527344 0.261719 "/></g></g></g><g fill="#907344" fill-opacity="1"><g transform="translate(39.138146, 40.634972)"><g><path d="M 4.589844 0 L 4.589844 -18.253906 L 2.554688 -18.253906 L 2.554688 0 Z M 17.082031 0 L 7.511719 -9.335938 L 16.664062 -18.253906 L 14.003906 -18.253906 L 4.902344 -9.363281 L 4.902344 -9.257812 L 14.421875 0 Z M 17.082031 0 "/></g></g></g><g fill="#907344" fill-opacity="1"><g transform="translate(71.004786, 40.634972)"><g><path d="M 4.5625 0 L 4.5625 -18.253906 L 2.554688 -18.253906 L 2.554688 0 Z M 4.5625 0 "/></g></g></g><g fill="#907344" fill-opacity="1"><g transform="translate(92.153789, 40.634972)"><g><path d="M 9.648438 -18.488281 C 4.953125 -18.488281 1.980469 -15.566406 1.980469 -10.742188 L 1.980469 0 L 4.015625 0 L 4.015625 -10.378906 C 4.015625 -14.1875 6.179688 -16.375 9.648438 -16.375 C 13.144531 -16.375 15.308594 -14.1875 15.308594 -10.378906 L 15.308594 0 L 17.316406 0 L 17.316406 -10.742188 C 17.316406 -15.566406 14.367188 -18.488281 9.648438 -18.488281 Z M 9.648438 -18.488281 "/></g></g></g><g fill="#907344" fill-opacity="1"><g transform="translate(125.48074, 40.634972)"><g><path d="M 0.625 -17.628906 L 0.859375 -16.011719 L 4.640625 -16.558594 L 4.640625 0 L 6.597656 0 L 6.597656 -18.253906 L 4.929688 -18.253906 Z M 0.625 -17.628906 "/></g></g></g><g fill="#907344" fill-opacity="1"><g transform="translate(148.663745, 40.634972)"><g><path d="M 9.335938 0.261719 C 14.160156 0.261719 16.976562 -3.886719 16.976562 -9.128906 C 16.976562 -14.523438 14.082031 -18.515625 9.363281 -18.515625 C 4.511719 -18.515625 1.722656 -14.34375 1.722656 -9.152344 C 1.722656 -3.78125 4.617188 0.261719 9.335938 0.261719 Z M 9.363281 -1.355469 C 5.867188 -1.355469 3.675781 -4.695312 3.675781 -9.152344 C 3.675781 -13.351562 5.660156 -16.871094 9.335938 -16.871094 C 12.828125 -16.871094 15.019531 -13.558594 15.019531 -9.101562 C 15.019531 -4.929688 13.011719 -1.355469 9.363281 -1.355469 Z M 9.363281 -1.355469 "/></g></g></g><g fill="#907344" fill-opacity="1"><g transform="translate(181.390923, 40.634972)"><g><path d="M 9.335938 0.261719 C 14.160156 0.261719 16.976562 -3.886719 16.976562 -9.128906 C 16.976562 -14.523438 14.082031 -18.515625 9.363281 -18.515625 C 4.511719 -18.515625 1.722656 -14.34375 1.722656 -9.152344 C 1.722656 -3.78125 4.617188 0.261719 9.335938 0.261719 Z M 9.363281 -1.355469 C 5.867188 -1.355469 3.675781 -4.695312 3.675781 -9.152344 C 3.675781 -13.351562 5.660156 -16.871094 9.335938 -16.871094 C 12.828125 -16.871094 15.019531 -13.558594 15.019531 -9.101562 C 15.019531 -4.929688 13.011719 -1.355469 9.363281 -1.355469 Z M 9.363281 -1.355469 "/></g></g></g><g fill="#907344" fill-opacity="1"><g transform="translate(214.1181, 40.634972)"><g><path d="M 12.59375 -6.074219 L 12.59375 -18.253906 L 10.144531 -18.253906 L 0.574219 -5.710938 L 0.914062 -4.617188 L 10.742188 -4.617188 L 10.742188 0 L 12.59375 0 L 12.59375 -4.617188 L 15.804688 -4.617188 L 15.804688 -6.074219 Z M 10.742188 -16.769531 L 10.742188 -6.074219 L 2.789062 -6.074219 Z M 10.742188 -16.769531 "/></g></g></g><g fill="#907344" fill-opacity="1"><g transform="translate(8.357557, 40.634972)"><g><path d="M 8.527344 0.261719 C 12.4375 0.261719 15.933594 -1.382812 15.933594 -4.851562 C 15.933594 -8.136719 13.378906 -9.386719 9.023438 -10.273438 C 5.605469 -11.03125 3.988281 -11.65625 3.988281 -13.535156 C 3.988281 -15.882812 6.152344 -16.664062 8.8125 -16.664062 C 10.691406 -16.664062 12.542969 -16.21875 14.523438 -15.253906 L 14.890625 -17.160156 C 12.960938 -18.070312 10.898438 -18.515625 8.789062 -18.515625 C 5.058594 -18.515625 1.851562 -16.871094 1.851562 -13.457031 C 1.851562 -10.585938 4.171875 -9.335938 8.476562 -8.5 C 11.8125 -7.769531 13.796875 -7.171875 13.796875 -4.796875 C 13.796875 -2.347656 11.316406 -1.617188 8.527344 -1.617188 C 6.3125 -1.617188 3.546875 -2.136719 1.460938 -3.257812 L 1.226562 -1.40625 C 3.15625 -0.285156 5.816406 0.261719 8.527344 0.261719 Z M 8.527344 0.261719 "/></g></g></g><g fill="#907344" fill-opacity="1"><g transform="translate(39.598349, 40.634972)"><g><path d="M 4.589844 0 L 4.589844 -18.253906 L 2.554688 -18.253906 L 2.554688 0 Z M 17.082031 0 L 7.511719 -9.335938 L 16.664062 -18.253906 L 14.003906 -18.253906 L 4.902344 -9.363281 L 4.902344 -9.257812 L 14.421875 0 Z M 17.082031 0 "/></g></g></g><g fill="#907344" fill-opacity="1"><g transform="translate(71.464989, 40.634972)"><g><path d="M 4.5625 0 L 4.5625 -18.253906 L 2.554688 -18.253906 L 2.554688 0 Z M 4.5625 0 "/></g></g></g><g fill="#907344" fill-opacity="1"><g transform="translate(92.613992, 40.634972)"><g><path d="M 9.648438 -18.488281 C 4.953125 -18.488281 1.980469 -15.566406 1.980469 -10.742188 L 1.980469 0 L 4.015625 0 L 4.015625 -10.378906 C 4.015625 -14.1875 6.179688 -16.375 9.648438 -16.375 C 13.144531 -16.375 15.308594 -14.1875 15.308594 -10.378906 L 15.308594 0 L 17.316406 0 L 17.316406 -10.742188 C 17.316406 -15.566406 14.367188 -18.488281 9.648438 -18.488281 Z M 9.648438 -18.488281 "/></g></g></g><g fill="#907344" fill-opacity="1"><g transform="translate(125.940943, 40.634972)"><g><path d="M 0.625 -17.628906 L 0.859375 -16.011719 L 4.640625 -16.558594 L 4.640625 0 L 6.597656 0 L 6.597656 -18.253906 L 4.929688 -18.253906 Z M 0.625 -17.628906 "/></g></g></g><g fill="#907344" fill-opacity="1"><g transform="translate(149.123949, 40.634972)"><g><path d="M 9.335938 0.261719 C 14.160156 0.261719 16.976562 -3.886719 16.976562 -9.128906 C 16.976562 -14.523438 14.082031 -18.515625 9.363281 -18.515625 C 4.511719 -18.515625 1.722656 -14.34375 1.722656 -9.152344 C 1.722656 -3.78125 4.617188 0.261719 9.335938 0.261719 Z M 9.363281 -1.355469 C 5.867188 -1.355469 3.675781 -4.695312 3.675781 -9.152344 C 3.675781 -13.351562 5.660156 -16.871094 9.335938 -16.871094 C 12.828125 -16.871094 15.019531 -13.558594 15.019531 -9.101562 C 15.019531 -4.929688 13.011719 -1.355469 9.363281 -1.355469 Z M 9.363281 -1.355469 "/></g></g></g><g fill="#907344" fill-opacity="1"><g transform="translate(181.851126, 40.634972)"><g><path d="M 9.335938 0.261719 C 14.160156 0.261719 16.976562 -3.886719 16.976562 -9.128906 C 16.976562 -14.523438 14.082031 -18.515625 9.363281 -18.515625 C 4.511719 -18.515625 1.722656 -14.34375 1.722656 -9.152344 C 1.722656 -3.78125 4.617188 0.261719 9.335938 0.261719 Z M 9.363281 -1.355469 C 5.867188 -1.355469 3.675781 -4.695312 3.675781 -9.152344 C 3.675781 -13.351562 5.660156 -16.871094 9.335938 -16.871094 C 12.828125 -16.871094 15.019531 -13.558594 15.019531 -9.101562 C 15.019531 -4.929688 13.011719 -1.355469 9.363281 -1.355469 Z M 9.363281 -1.355469 "/></g></g></g><g fill="#907344" fill-opacity="1"><g transform="translate(214.578303, 40.634972)"><g><path d="M 12.59375 -6.074219 L 12.59375 -18.253906 L 10.144531 -18.253906 L 0.574219 -5.710938 L 0.914062 -4.617188 L 10.742188 -4.617188 L 10.742188 0 L 12.59375 0 L 12.59375 -4.617188 L 15.804688 -4.617188 L 15.804688 -6.074219 Z M 10.742188 -16.769531 L 10.742188 -6.074219 L 2.789062 -6.074219 Z M 10.742188 -16.769531 "/></g></g></g></svg>