<svg xmlns="http://www.w3.org/2000/svg" xmlns:xlink="http://www.w3.org/1999/xlink" width="1280" zoomAndPan="magnify" viewBox="0 0 960 540.000001" height="720" preserveAspectRatio="xMidYMid meet" version="1.0"><defs><g/></defs><g fill="#907344" fill-opacity="1"><g transform="translate(48.115294, 296.981937)"><g><path d="M 32.851562 1.003906 C 47.921875 1.003906 61.382812 -5.324219 61.382812 -18.6875 C 61.382812 -31.34375 51.539062 -36.167969 34.761719 -39.582031 C 21.601562 -42.496094 15.371094 -44.90625 15.371094 -52.140625 C 15.371094 -61.183594 23.710938 -64.199219 33.957031 -64.199219 C 41.191406 -64.199219 48.324219 -62.488281 55.960938 -58.773438 L 57.367188 -66.105469 C 49.929688 -69.621094 41.996094 -71.332031 33.855469 -71.332031 C 19.492188 -71.332031 7.132812 -65 7.132812 -51.839844 C 7.132812 -40.789062 16.074219 -35.964844 32.652344 -32.75 C 45.511719 -29.9375 53.144531 -27.628906 53.144531 -18.484375 C 53.144531 -9.042969 43.601562 -6.230469 32.851562 -6.230469 C 24.3125 -6.230469 13.664062 -8.238281 5.625 -12.558594 L 4.722656 -5.425781 C 12.15625 -1.105469 22.402344 1.003906 32.851562 1.003906 Z M 32.851562 1.003906 "/></g></g></g><g fill="#907344" fill-opacity="1"><g transform="translate(168.473024, 296.981937)"><g><path d="M 17.683594 0 L 17.683594 -70.324219 L 9.84375 -70.324219 L 9.84375 0 Z M 65.804688 0 L 28.933594 -35.964844 L 64.199219 -70.324219 L 53.949219 -70.324219 L 18.886719 -36.066406 L 18.886719 -35.664062 L 55.558594 0 Z M 65.804688 0 "/></g></g></g><g fill="#907344" fill-opacity="1"><g transform="translate(291.241883, 296.981937)"><g><path d="M 17.582031 0 L 17.582031 -70.324219 L 9.84375 -70.324219 L 9.84375 0 Z M 17.582031 0 "/></g></g></g><g fill="#907344" fill-opacity="1"><g transform="translate(372.720161, 296.981937)"><g><path d="M 37.171875 -71.230469 C 19.089844 -71.230469 7.636719 -59.976562 7.636719 -41.390625 L 7.636719 0 L 15.472656 0 L 15.472656 -39.984375 C 15.472656 -54.652344 23.808594 -63.09375 37.171875 -63.09375 C 50.632812 -63.09375 58.972656 -54.652344 58.972656 -39.984375 L 58.972656 0 L 66.707031 0 L 66.707031 -41.390625 C 66.707031 -59.976562 55.355469 -71.230469 37.171875 -71.230469 Z M 37.171875 -71.230469 "/></g></g></g><g fill="#907344" fill-opacity="1"><g transform="translate(501.114992, 296.981937)"><g><path d="M 2.410156 -67.914062 L 3.316406 -61.6875 L 17.882812 -63.796875 L 17.882812 0 L 25.417969 0 L 25.417969 -70.324219 L 18.988281 -70.324219 Z M 2.410156 -67.914062 "/></g></g></g><g fill="#907344" fill-opacity="1"><g transform="translate(590.429433, 296.981937)"><g><path d="M 35.964844 1.003906 C 54.550781 1.003906 65.402344 -14.96875 65.402344 -35.164062 C 65.402344 -55.960938 54.25 -71.332031 36.066406 -71.332031 C 17.378906 -71.332031 6.628906 -55.257812 6.628906 -35.261719 C 6.628906 -14.566406 17.78125 1.003906 35.964844 1.003906 Z M 36.066406 -5.222656 C 22.605469 -5.222656 14.164062 -18.082031 14.164062 -35.261719 C 14.164062 -51.4375 21.800781 -65 35.964844 -65 C 49.429688 -65 57.867188 -52.242188 57.867188 -35.0625 C 57.867188 -18.988281 50.132812 -5.222656 36.066406 -5.222656 Z M 36.066406 -5.222656 "/></g></g></g><g fill="#907344" fill-opacity="1"><g transform="translate(716.513583, 296.981937)"><g><path d="M 35.964844 1.003906 C 54.550781 1.003906 65.402344 -14.96875 65.402344 -35.164062 C 65.402344 -55.960938 54.25 -71.332031 36.066406 -71.332031 C 17.378906 -71.332031 6.628906 -55.257812 6.628906 -35.261719 C 6.628906 -14.566406 17.78125 1.003906 35.964844 1.003906 Z M 36.066406 -5.222656 C 22.605469 -5.222656 14.164062 -18.082031 14.164062 -35.261719 C 14.164062 -51.4375 21.800781 -65 35.964844 -65 C 49.429688 -65 57.867188 -52.242188 57.867188 -35.0625 C 57.867188 -18.988281 50.132812 -5.222656 36.066406 -5.222656 Z M 36.066406 -5.222656 "/></g></g></g><g fill="#907344" fill-opacity="1"><g transform="translate(842.597734, 296.981937)"><g><path d="M 48.523438 -23.410156 L 48.523438 -70.324219 L 39.082031 -70.324219 L 2.210938 -22 L 3.515625 -17.78125 L 41.390625 -17.78125 L 41.390625 0 L 48.523438 0 L 48.523438 -17.78125 L 60.882812 -17.78125 L 60.882812 -23.410156 Z M 41.390625 -64.597656 L 41.390625 -23.410156 L 10.75 -23.410156 Z M 41.390625 -64.597656 "/></g></g></g><g fill="#907344" fill-opacity="1"><g transform="translate(49.888268, 296.981937)"><g><path d="M 32.851562 1.003906 C 47.921875 1.003906 61.382812 -5.324219 61.382812 -18.6875 C 61.382812 -31.34375 51.539062 -36.167969 34.761719 -39.582031 C 21.601562 -42.496094 15.371094 -44.90625 15.371094 -52.140625 C 15.371094 -61.183594 23.710938 -64.199219 33.957031 -64.199219 C 41.191406 -64.199219 48.324219 -62.488281 55.960938 -58.773438 L 57.367188 -66.105469 C 49.929688 -69.621094 41.996094 -71.332031 33.855469 -71.332031 C 19.492188 -71.332031 7.132812 -65 7.132812 -51.839844 C 7.132812 -40.789062 16.074219 -35.964844 32.652344 -32.75 C 45.511719 -29.9375 53.144531 -27.628906 53.144531 -18.484375 C 53.144531 -9.042969 43.601562 -6.230469 32.851562 -6.230469 C 24.3125 -6.230469 13.664062 -8.238281 5.625 -12.558594 L 4.722656 -5.425781 C 12.15625 -1.105469 22.402344 1.003906 32.851562 1.003906 Z M 32.851562 1.003906 "/></g></g></g><g fill="#907344" fill-opacity="1"><g transform="translate(170.245998, 296.981937)"><g><path d="M 17.683594 0 L 17.683594 -70.324219 L 9.84375 -70.324219 L 9.84375 0 Z M 65.804688 0 L 28.933594 -35.964844 L 64.199219 -70.324219 L 53.949219 -70.324219 L 18.886719 -36.066406 L 18.886719 -35.664062 L 55.558594 0 Z M 65.804688 0 "/></g></g></g><g fill="#907344" fill-opacity="1"><g transform="translate(293.014856, 296.981937)"><g><path d="M 17.582031 0 L 17.582031 -70.324219 L 9.84375 -70.324219 L 9.84375 0 Z M 17.582031 0 "/></g></g></g><g fill="#907344" fill-opacity="1"><g transform="translate(374.493134, 296.981937)"><g><path d="M 37.171875 -71.230469 C 19.089844 -71.230469 7.636719 -59.976562 7.636719 -41.390625 L 7.636719 0 L 15.472656 0 L 15.472656 -39.984375 C 15.472656 -54.652344 23.808594 -63.09375 37.171875 -63.09375 C 50.632812 -63.09375 58.972656 -54.652344 58.972656 -39.984375 L 58.972656 0 L 66.707031 0 L 66.707031 -41.390625 C 66.707031 -59.976562 55.355469 -71.230469 37.171875 -71.230469 Z M 37.171875 -71.230469 "/></g></g></g><g fill="#907344" fill-opacity="1"><g transform="translate(502.887965, 296.981937)"><g><path d="M 2.410156 -67.914062 L 3.316406 -61.6875 L 17.882812 -63.796875 L 17.882812 0 L 25.417969 0 L 25.417969 -70.324219 L 18.988281 -70.324219 Z M 2.410156 -67.914062 "/></g></g></g><g fill="#907344" fill-opacity="1"><g transform="translate(592.202406, 296.981937)"><g><path d="M 35.964844 1.003906 C 54.550781 1.003906 65.402344 -14.96875 65.402344 -35.164062 C 65.402344 -55.960938 54.25 -71.332031 36.066406 -71.332031 C 17.378906 -71.332031 6.628906 -55.257812 6.628906 -35.261719 C 6.628906 -14.566406 17.78125 1.003906 35.964844 1.003906 Z M 36.066406 -5.222656 C 22.605469 -5.222656 14.164062 -18.082031 14.164062 -35.261719 C 14.164062 -51.4375 21.800781 -65 35.964844 -65 C 49.429688 -65 57.867188 -52.242188 57.867188 -35.0625 C 57.867188 -18.988281 50.132812 -5.222656 36.066406 -5.222656 Z M 36.066406 -5.222656 "/></g></g></g><g fill="#907344" fill-opacity="1"><g transform="translate(718.286557, 296.981937)"><g><path d="M 35.964844 1.003906 C 54.550781 1.003906 65.402344 -14.96875 65.402344 -35.164062 C 65.402344 -55.960938 54.25 -71.332031 36.066406 -71.332031 C 17.378906 -71.332031 6.628906 -55.257812 6.628906 -35.261719 C 6.628906 -14.566406 17.78125 1.003906 35.964844 1.003906 Z M 36.066406 -5.222656 C 22.605469 -5.222656 14.164062 -18.082031 14.164062 -35.261719 C 14.164062 -51.4375 21.800781 -65 35.964844 -65 C 49.429688 -65 57.867188 -52.242188 57.867188 -35.0625 C 57.867188 -18.988281 50.132812 -5.222656 36.066406 -5.222656 Z M 36.066406 -5.222656 "/></g></g></g><g fill="#907344" fill-opacity="1"><g transform="translate(844.370708, 296.981937)"><g><path d="M 48.523438 -23.410156 L 48.523438 -70.324219 L 39.082031 -70.324219 L 2.210938 -22 L 3.515625 -17.78125 L 41.390625 -17.78125 L 41.390625 0 L 48.523438 0 L 48.523438 -17.78125 L 60.882812 -17.78125 L 60.882812 -23.410156 Z M 41.390625 -64.597656 L 41.390625 -23.410156 L 10.75 -23.410156 Z M 41.390625 -64.597656 "/></g></g></g></svg>